<svg xmlns="http://www.w3.org/2000/svg" width="800" height="800" viewBox="0 0 800 800">
<g>
<path d="M 615.46 624.05 C602.73,625.03 514.48,625.00 499.00,624.01 C483.09,622.99 479.00,620.55 479.00,612.05 C479.00,608.67 479.62,607.36 482.64,604.43 L 486.28 600.90 L 498.10 601.10 C506.15,601.24 510.39,600.92 511.38,600.10 C512.82,598.90 514.33,591.26 515.48,579.36 L 516.07 573.22 L 443.29 572.73 C348.31,572.10 349.57,572.30 334.25,555.22 C325.38,545.32 321.77,538.61 320.12,528.92 C319.38,524.58 319.00,502.64 319.00,464.65 L 319.00 406.96 L 323.62 397.75 C331.24,382.59 342.93,372.50 359.25,367.00 C365.96,364.74 366.25,364.73 407.75,365.29 C451.82,365.87 462.45,366.77 478.00,371.22 C518.19,382.73 540.63,408.28 549.38,452.50 C551.36,462.50 554.67,488.57 555.48,500.50 C555.82,505.45 556.33,510.75 556.63,512.28 L 557.17 515.05 L 571.24 514.78 C582.85,514.55 585.35,514.24 585.52,513.00 C585.63,512.17 586.04,494.40 586.44,473.50 C587.16,434.51 587.90,424.01 590.41,416.61 C599.66,389.37 619.72,374.53 656.46,367.75 C667.58,365.70 671.51,365.53 708.00,365.52 C751.16,365.50 752.18,365.61 762.84,371.79 C773.30,377.84 779.86,385.05 787.82,399.29 L 792.42 407.50 L 792.76 428.00 C792.94,439.27 792.70,467.40 792.22,490.50 C791.36,531.56 791.29,532.62 788.97,537.94 C784.69,547.74 772.95,560.43 762.51,566.55 C753.27,571.96 750.69,572.14 670.00,572.85 L 595.50 573.50 L 595.62 580.54 C595.69,584.41 596.28,590.75 596.94,594.63 L 598.12 601.67 L 610.81 601.27 C622.32,600.90 623.80,601.06 626.77,602.93 C628.58,604.07 630.51,606.22 631.08,607.71 C632.47,611.36 631.29,617.55 628.61,620.66 C626.62,622.98 625.44,623.29 615.46,624.05 ZM 368.50 514.95 C409.21,516.10 532.56,516.12 535.57,514.97 L 538.27 513.95 L 537.60 505.22 C534.17,460.97 529.63,438.34 521.28,424.00 C519.07,420.20 513.35,413.33 507.50,407.46 C498.30,398.21 496.84,397.15 489.18,394.16 C484.60,392.37 475.38,389.47 468.68,387.71 L 456.50 384.51 L 409.00 384.51 L 361.50 384.50 L 356.85 387.23 C350.44,391.00 344.37,398.14 340.23,406.80 C337.01,413.51 336.65,415.22 335.77,427.80 C334.50,446.07 335.49,507.78 337.11,511.35 C338.01,513.32 339.11,514.03 341.41,514.14 C343.11,514.21 355.30,514.58 368.50,514.95 ZM 612.00 515.09 C615.03,515.41 639.60,515.75 666.62,515.84 C718.95,516.01 771.66,514.51 773.75,512.79 C775.20,511.59 775.42,457.70 774.09,428.00 C773.40,412.63 773.02,409.89 770.94,405.53 C768.30,399.98 760.91,392.00 753.84,387.05 L 749.18 383.79 L 702.84 384.24 C658.11,384.67 656.26,384.76 649.50,386.94 C627.26,394.11 616.69,402.36 609.06,418.50 L 605.27 426.50 L 605.89 470.50 L 606.50 514.50 ZM 702.68 349.92 C693.37,351.21 691.89,351.18 681.50,349.54 C667.37,347.30 657.18,342.02 647.35,331.84 C638.23,322.38 631.75,310.36 630.01,299.63 C628.73,291.75 628.72,278.73 630.00,272.02 C633.64,252.83 651.44,232.55 671.50,224.73 C682.62,220.40 707.66,221.78 720.42,227.42 C760.12,244.98 770.28,297.08 740.39,329.82 C729.55,341.70 718.15,347.77 702.68,349.92 ZM 431.94 348.93 C420.72,350.75 406.73,351.00 400.76,349.50 C384.24,345.33 366.84,330.76 358.95,314.50 C344.07,283.80 353.53,250.69 382.80,231.00 C391.23,225.32 399.26,222.88 411.50,222.27 C431.43,221.27 446.73,226.42 459.79,238.51 C473.84,251.52 480.97,267.68 480.97,286.50 C480.97,305.80 472.63,323.22 456.97,336.63 C450.33,342.31 439.31,347.73 431.94,348.93 ZM 376.00 552.95 C383.98,553.36 471.31,553.76 570.08,553.84 L 749.67 554.00 L 755.58 549.90 C764.64,543.62 771.00,536.88 771.00,533.55 C771.00,532.50 341.15,532.95 340.50,534.00 C340.16,534.55 342.27,537.93 345.19,541.50 C352.48,550.42 356.66,551.97 376.00,552.95 ZM 197.67 334.47 C185.42,339.08 168.55,339.32 156.39,335.05 C139.08,328.96 125.73,314.65 120.46,296.52 C117.93,287.79 118.80,271.67 122.27,263.27 C137.04,227.50 181.24,217.55 209.08,243.73 C219.88,253.89 225.00,265.96 225.00,281.27 L 225.00 289.12 L 181.54 288.81 L 138.09 288.50 L 138.64 291.00 C139.75,296.04 144.62,304.49 149.00,308.99 C154.21,314.34 162.73,318.70 171.01,320.24 C181.56,322.20 194.37,317.97 203.94,309.36 C207.34,306.31 209.14,305.26 209.43,306.16 C210.29,308.78 214.00,323.96 214.00,324.87 C214.00,326.40 204.89,331.75 197.67,334.47 ZM 682.69 331.50 C702.79,337.02 724.78,326.51 735.28,306.34 C739.73,297.80 740.74,290.79 739.07,280.01 C734.91,253.22 712.02,235.86 686.28,239.95 C668.71,242.75 652.70,256.55 648.55,272.47 C645.74,283.24 646.87,297.92 651.20,306.97 C656.06,317.11 670.07,328.03 682.69,331.50 ZM 404.00 331.12 C421.76,336.85 443.66,328.77 455.14,312.26 C456.76,309.93 459.19,305.08 460.54,301.49 C466.60,285.38 460.98,263.36 447.76,251.47 C437.80,242.52 428.48,239.48 413.32,240.26 C404.64,240.70 402.06,241.25 396.56,243.83 C384.94,249.26 376.26,259.45 372.59,271.93 C371.56,275.44 371.00,281.23 371.00,288.28 C371.00,300.55 371.67,302.69 378.58,312.56 C385.21,322.02 392.66,327.46 404.00,331.12 ZM 110.79 327.25 L 110.50 336.50 L 64.50 336.74 C39.20,336.87 17.92,336.61 17.20,336.15 C16.23,335.53 24.33,318.30 49.95,266.55 C68.68,228.73 84.00,197.61 84.00,197.41 C84.00,197.20 70.39,196.91 53.75,196.76 L 23.50 196.50 L 22.92 179.00 L 68.46 179.00 C93.51,179.00 114.00,179.17 114.00,179.38 C114.00,179.59 98.70,210.57 80.00,248.24 C61.30,285.90 46.00,317.01 46.00,317.36 C46.00,317.71 60.64,318.00 78.54,318.00 L 111.08 318.00 ZM 257.96 335.07 C257.07,336.73 255.82,337.00 249.00,337.00 C242.16,337.00 240.93,336.73 240.03,335.05 C239.33,333.75 239.07,316.18 239.24,282.30 L 239.50 231.50 L 248.25 231.21 L 257.00 230.92 L 257.00 238.46 C257.00,242.61 257.23,246.00 257.50,246.00 C257.78,246.00 259.65,244.18 261.67,241.94 C271.57,230.99 289.29,226.34 303.88,230.88 C319.20,235.65 328.35,245.48 332.48,261.62 C333.76,266.60 333.98,273.67 333.76,302.08 L 333.50 336.50 L 326.52 336.80 C322.68,336.97 318.54,336.85 317.32,336.54 L 315.10 335.99 L 314.50 267.50 L 311.80 262.38 C308.08,255.33 301.22,249.49 294.85,247.96 C284.44,245.47 270.99,249.40 265.55,256.52 C259.11,264.97 259.05,265.39 259.02,300.82 C259.01,321.14 258.62,333.85 257.96,335.07 ZM 338.00 362.00 L 338.00 374.00 L 8.00 374.00 L 8.00 362.00 ZM 531.33 606.42 C531.86,607.80 534.91,608.00 555.00,608.00 C574.36,608.00 578.15,607.76 578.63,606.53 C579.22,604.99 577.37,583.00 576.14,577.00 L 575.43 573.50 L 568.96 573.17 C565.41,572.99 556.14,573.14 548.37,573.52 L 534.24 574.20 L 533.13 581.35 C531.55,591.44 530.61,604.55 531.33,606.42 ZM 138.58 271.59 L 137.91 274.68 L 143.71 273.83 C146.89,273.37 162.10,273.06 177.50,273.14 C178.96,273.15 180.35,273.16 181.68,273.17 C199.12,273.27 204.91,273.31 205.77,271.26 C206.20,270.25 205.41,268.72 204.23,266.43 C204.05,266.08 203.86,265.72 203.66,265.33 C200.42,258.95 193.80,252.54 187.01,249.20 C182.26,246.87 180.26,246.50 172.50,246.50 C164.58,246.50 162.79,246.85 157.54,249.43 C148.16,254.03 140.41,263.09 138.58,271.59 ZM 554.32 323.88 C553.11,324.49 549.96,325.00 547.32,325.00 C535.72,324.99 529.42,315.18 536.97,308.89 C543.02,303.83 552.44,304.17 558.16,309.65 C563.11,314.39 561.55,320.15 554.32,323.88 ZM 556.79 230.32 C553.72,232.60 544.84,233.55 541.19,232.00 C530.21,227.34 534.35,213.88 546.70,214.05 C552.21,214.13 559.20,217.11 560.87,220.08 C562.09,222.26 562.10,223.02 560.90,225.47 C560.13,227.04 558.28,229.22 556.79,230.32 ZM 556.55 192.56 C553.94,194.27 542.76,195.48 540.00,194.35 C534.38,192.06 533.06,184.37 537.41,179.31 C539.63,176.73 540.40,176.50 546.84,176.50 C552.40,176.50 554.44,176.93 556.68,178.60 C562.18,182.70 562.13,188.91 556.55,192.56 ZM 553.03 286.35 C549.63,288.62 545.25,288.42 539.96,285.75 C534.37,282.93 533.06,279.78 535.42,274.82 C537.53,270.36 540.51,269.00 548.15,269.00 C553.70,269.00 554.48,269.28 557.60,272.40 C559.47,274.27 561.00,276.66 561.00,277.71 C561.00,279.63 557.66,283.25 553.03,286.35 Z" fill="rgb(75,108,78)"/>
<path d="M 0.00 400.00 L 0.00 0.00 L 400.00 0.00 L 800.00 0.00 L 800.00 400.00 L 800.00 800.00 L 400.00 800.00 L 0.00 800.00 L 0.00 400.00 ZM 615.46 624.05 C625.44,623.29 626.62,622.98 628.61,620.66 C631.29,617.55 632.47,611.36 631.08,607.71 C630.51,606.22 628.58,604.07 626.77,602.93 C623.80,601.06 622.32,600.90 610.81,601.27 L 598.12 601.67 L 596.94 594.63 C596.28,590.75 595.69,584.41 595.62,580.54 L 595.50 573.50 L 670.00 572.85 C750.69,572.14 753.27,571.96 762.51,566.55 C772.95,560.43 784.69,547.74 788.97,537.94 C791.29,532.62 791.36,531.56 792.22,490.50 C792.70,467.40 792.94,439.27 792.76,428.00 L 792.42 407.50 L 787.82 399.29 C779.86,385.05 773.30,377.84 762.84,371.79 C752.18,365.61 751.16,365.50 708.00,365.52 C671.51,365.53 667.58,365.70 656.46,367.75 C619.72,374.53 599.66,389.37 590.41,416.61 C587.90,424.01 587.16,434.51 586.44,473.50 C586.04,494.40 585.63,512.17 585.52,513.00 C585.35,514.24 582.85,514.55 571.24,514.78 L 557.17 515.05 L 556.63 512.28 C556.33,510.75 555.82,505.45 555.48,500.50 C554.67,488.57 551.36,462.50 549.38,452.50 C540.63,408.28 518.19,382.73 478.00,371.22 C462.45,366.77 451.82,365.87 407.75,365.29 C366.25,364.73 365.96,364.74 359.25,367.00 C342.93,372.50 331.24,382.59 323.62,397.75 L 319.00 406.96 L 319.00 464.65 C319.00,502.64 319.38,524.58 320.12,528.92 C321.77,538.61 325.38,545.32 334.25,555.22 C349.57,572.30 348.31,572.10 443.29,572.73 L 516.07 573.22 L 515.48 579.36 C514.33,591.26 512.82,598.90 511.38,600.10 C510.39,600.92 506.15,601.24 498.10,601.10 L 486.28 600.90 L 482.64 604.43 C479.62,607.36 479.00,608.67 479.00,612.05 C479.00,620.55 483.09,622.99 499.00,624.01 C514.48,625.00 602.73,625.03 615.46,624.05 ZM 338.00 368.00 L 338.00 362.00 L 173.00 362.00 L 8.00 362.00 L 8.00 368.00 L 8.00 374.00 L 173.00 374.00 L 338.00 374.00 L 338.00 368.00 ZM 431.94 348.93 C439.31,347.73 450.33,342.31 456.97,336.63 C472.63,323.22 480.97,305.80 480.97,286.50 C480.97,267.68 473.84,251.52 459.79,238.51 C446.73,226.42 431.43,221.27 411.50,222.27 C399.26,222.88 391.23,225.32 382.80,231.00 C353.53,250.69 344.07,283.80 358.95,314.50 C366.84,330.76 384.24,345.33 400.76,349.50 C406.73,351.00 420.72,350.75 431.94,348.93 ZM 702.68 349.92 C718.15,347.77 729.55,341.70 740.39,329.82 C770.28,297.08 760.12,244.98 720.42,227.42 C707.66,221.78 682.62,220.40 671.50,224.73 C651.44,232.55 633.64,252.83 630.00,272.02 C628.72,278.73 628.73,291.75 630.01,299.63 C631.75,310.36 638.23,322.38 647.35,331.84 C657.18,342.02 667.37,347.30 681.50,349.54 C691.89,351.18 693.37,351.21 702.68,349.92 ZM 197.67 334.47 C204.89,331.75 214.00,326.40 214.00,324.87 C214.00,323.96 210.29,308.78 209.43,306.16 C209.14,305.26 207.34,306.31 203.94,309.36 C194.37,317.97 181.56,322.20 171.01,320.24 C162.73,318.70 154.21,314.34 149.00,308.99 C144.62,304.49 139.75,296.04 138.64,291.00 L 138.09 288.50 L 181.54 288.81 L 225.00 289.12 L 225.00 281.27 C225.00,265.96 219.88,253.89 209.08,243.73 C181.24,217.55 137.04,227.50 122.27,263.27 C118.80,271.67 117.93,287.79 120.46,296.52 C125.73,314.65 139.08,328.96 156.39,335.05 C168.55,339.32 185.42,339.08 197.67,334.47 ZM 110.79 327.25 L 111.08 318.00 L 78.54 318.00 C60.64,318.00 46.00,317.71 46.00,317.36 C46.00,317.01 61.30,285.90 80.00,248.24 C98.70,210.57 114.00,179.59 114.00,179.38 C114.00,179.17 93.51,179.00 68.46,179.00 L 22.92 179.00 L 23.21 187.75 L 23.50 196.50 L 53.75 196.76 C70.39,196.91 84.00,197.20 84.00,197.41 C84.00,197.61 68.68,228.73 49.95,266.55 C24.33,318.30 16.23,335.53 17.20,336.15 C17.92,336.61 39.20,336.87 64.50,336.74 L 110.50 336.50 L 110.79 327.25 ZM 257.96 335.07 C258.62,333.85 259.01,321.14 259.02,300.82 C259.05,265.39 259.11,264.97 265.55,256.52 C270.99,249.40 284.44,245.47 294.85,247.96 C301.22,249.49 308.08,255.33 311.80,262.38 L 314.50 267.50 L 314.80 301.74 L 315.10 335.99 L 317.32 336.54 C318.54,336.85 322.68,336.97 326.52,336.80 L 333.50 336.50 L 333.76 302.08 C333.98,273.67 333.76,266.60 332.48,261.62 C328.35,245.48 319.20,235.65 303.88,230.88 C289.29,226.34 271.57,230.99 261.67,241.94 C259.65,244.18 257.78,246.00 257.50,246.00 C257.23,246.00 257.00,242.61 257.00,238.46 L 257.00 230.92 L 248.25 231.21 L 239.50 231.50 L 239.24 282.30 C239.07,316.18 239.33,333.75 240.03,335.05 C240.93,336.73 242.16,337.00 249.00,337.00 C255.82,337.00 257.07,336.73 257.96,335.07 ZM 554.32 323.88 C561.55,320.15 563.11,314.39 558.16,309.65 C552.44,304.17 543.02,303.83 536.97,308.89 C529.42,315.18 535.72,324.99 547.32,325.00 C549.96,325.00 553.11,324.49 554.32,323.88 ZM 553.03 286.35 C557.66,283.25 561.00,279.63 561.00,277.71 C561.00,276.66 559.47,274.27 557.60,272.40 C554.48,269.28 553.70,269.00 548.15,269.00 C540.51,269.00 537.53,270.36 535.42,274.82 C533.06,279.78 534.37,282.93 539.96,285.75 C545.25,288.42 549.63,288.62 553.03,286.35 ZM 556.79 230.32 C558.28,229.22 560.13,227.04 560.90,225.47 C562.10,223.02 562.09,222.26 560.87,220.08 C559.20,217.11 552.21,214.13 546.70,214.05 C534.35,213.88 530.21,227.34 541.19,232.00 C544.84,233.55 553.72,232.60 556.79,230.32 ZM 556.55 192.56 C562.13,188.91 562.18,182.70 556.68,178.60 C554.44,176.93 552.40,176.50 546.84,176.50 C540.40,176.50 539.63,176.73 537.41,179.31 C533.06,184.37 534.38,192.06 540.00,194.35 C542.76,195.48 553.94,194.27 556.55,192.56 ZM 531.33 606.42 C530.61,604.55 531.55,591.44 533.13,581.35 L 534.24 574.20 L 548.37 573.52 C556.14,573.14 565.41,572.99 568.96,573.17 L 575.43 573.50 L 576.14 577.00 C577.37,583.00 579.22,604.99 578.63,606.53 C578.15,607.76 574.36,608.00 555.00,608.00 C534.91,608.00 531.86,607.80 531.33,606.42 ZM 376.00 552.95 C356.66,551.97 352.48,550.42 345.19,541.50 C342.27,537.93 340.16,534.55 340.50,534.00 C341.15,532.95 771.00,532.50 771.00,533.55 C771.00,536.88 764.64,543.62 755.58,549.90 L 749.67 554.00 L 570.08 553.84 C471.31,553.76 383.98,553.36 376.00,552.95 ZM 368.50 514.95 C355.30,514.58 343.11,514.21 341.41,514.14 C339.11,514.03 338.01,513.32 337.11,511.35 C335.49,507.78 334.50,446.07 335.77,427.80 C336.65,415.22 337.01,413.51 340.23,406.80 C344.37,398.14 350.44,391.00 356.85,387.23 L 361.50 384.50 L 409.00 384.51 L 456.50 384.51 L 468.68 387.71 C475.38,389.47 484.60,392.37 489.18,394.16 C496.84,397.15 498.30,398.21 507.50,407.46 C513.35,413.33 519.07,420.20 521.28,424.00 C529.63,438.34 534.17,460.97 537.60,505.22 L 538.27 513.95 L 535.57 514.97 C532.56,516.12 409.21,516.10 368.50,514.95 ZM 612.00 515.09 L 606.50 514.50 L 605.89 470.50 L 605.27 426.50 L 609.06 418.50 C616.69,402.36 627.26,394.11 649.50,386.94 C656.26,384.76 658.11,384.67 702.84,384.24 L 749.18 383.79 L 753.84 387.05 C760.91,392.00 768.30,399.98 770.94,405.53 C773.02,409.89 773.40,412.63 774.09,428.00 C775.42,457.70 775.20,511.59 773.75,512.79 C771.66,514.51 718.95,516.01 666.62,515.84 C639.60,515.75 615.03,515.41 612.00,515.09 ZM 404.00 331.12 C392.66,327.46 385.21,322.02 378.58,312.56 C371.67,302.69 371.00,300.55 371.00,288.28 C371.00,281.23 371.56,275.44 372.59,271.93 C376.26,259.45 384.94,249.26 396.56,243.83 C402.06,241.25 404.64,240.70 413.32,240.26 C428.48,239.48 437.80,242.52 447.76,251.47 C460.98,263.36 466.60,285.38 460.54,301.49 C459.19,305.08 456.76,309.93 455.14,312.26 C443.66,328.77 421.76,336.85 404.00,331.12 ZM 682.69 331.50 C670.07,328.03 656.06,317.11 651.20,306.97 C646.87,297.92 645.74,283.24 648.55,272.47 C652.70,256.55 668.71,242.75 686.28,239.95 C712.02,235.86 734.91,253.22 739.07,280.01 C740.74,290.79 739.73,297.80 735.28,306.34 C724.78,326.51 702.79,337.02 682.69,331.50 ZM 138.58 271.59 C140.41,263.09 148.16,254.03 157.54,249.43 C162.79,246.85 164.58,246.50 172.50,246.50 C180.26,246.50 182.26,246.87 187.01,249.20 C193.80,252.54 200.42,258.95 203.66,265.33 C207.92,273.71 209.24,273.31 177.50,273.14 C162.10,273.06 146.89,273.37 143.71,273.83 L 137.91 274.68 L 138.58 271.59 Z" fill="rgb(254,254,254)"/>
</g>
</svg>