<svg xmlns="http://www.w3.org/2000/svg" width="800" height="800" viewBox="0 0 800 800">
<g>
<path d="M 625.50 622.47 C621.68,624.36 619.05,624.46 566.00,624.62 C482.23,624.87 479.00,624.41 479.00,612.11 C479.00,608.80 479.64,607.47 482.65,604.55 L 486.31 601.00 L 511.10 601.00 L 512.50 597.66 C513.51,595.23 516.00,578.08 516.00,573.50 C516.00,573.34 483.49,573.00 443.75,572.73 C348.46,572.10 349.54,572.27 334.01,554.95 C325.22,545.15 321.51,538.25 320.04,529.00 C319.43,525.10 319.01,499.38 319.01,464.66 L 319.00 406.82 L 323.61 397.90 C331.83,381.98 341.75,373.23 358.23,367.39 C364.81,365.06 365.72,365.00 397.73,365.01 C461.34,365.03 479.94,368.16 505.64,383.19 C536.58,401.28 549.63,431.11 554.98,496.00 C555.55,502.88 556.26,509.97 556.56,511.78 L 557.10 515.05 L 585.50 514.50 L 585.76 500.50 C586.65,453.26 587.96,425.25 589.54,419.50 C597.33,391.15 618.54,374.75 656.46,367.75 C667.58,365.70 671.51,365.53 708.00,365.52 C752.38,365.50 753.58,365.66 764.86,373.03 C775.01,379.66 781.43,387.28 788.92,401.58 L 792.10 407.66 L 791.80 470.10 L 791.50 532.55 L 788.30 539.02 C783.16,549.43 772.77,560.53 762.59,566.50 C753.04,572.10 751.91,572.17 670.11,572.72 L 594.72 573.23 L 595.33 581.09 C595.66,585.42 596.43,591.81 597.04,595.30 L 598.14 601.65 L 611.35 601.20 C624.51,600.76 624.57,600.76 627.74,603.44 C633.96,608.67 632.75,618.90 625.50,622.47 ZM 366.67 514.96 C402.06,515.87 530.52,515.98 534.50,515.10 L 537.50 514.44 L 537.28 505.97 C537.00,495.03 534.41,470.00 532.37,458.50 C527.46,430.86 519.20,415.77 500.70,400.61 C495.58,396.41 482.74,391.29 467.50,387.36 L 456.50 384.52 L 409.00 384.51 L 361.50 384.50 L 356.75 387.34 C350.19,391.27 344.37,398.15 340.16,406.93 C335.78,416.10 335.13,423.20 335.13,462.00 C335.13,491.46 336.17,511.57 337.78,513.18 C338.44,513.84 349.35,514.51 366.67,514.96 ZM 613.87 515.26 C651.68,516.94 770.96,515.09 773.75,512.79 C775.19,511.60 775.38,468.52 774.10,432.00 C773.42,412.73 773.11,410.02 771.11,405.86 C768.09,399.56 762.82,393.62 755.62,388.38 L 749.60 384.00 L 710.55 384.03 C666.91,384.05 655.79,384.80 645.25,388.40 C627.11,394.60 616.13,403.63 609.28,418.00 L 605.22 426.50 L 605.72 470.71 L 606.23 514.92 ZM 704.53 349.63 C693.89,351.23 692.05,351.22 681.50,349.50 C667.34,347.19 656.71,341.61 646.90,331.32 C631.86,315.54 626.21,295.76 630.04,272.21 C633.08,253.43 652.32,231.59 672.14,224.41 C678.88,221.97 694.86,221.49 705.79,223.39 C717.38,225.42 725.48,229.06 734.65,236.40 C749.79,248.52 757.34,264.67 757.38,285.00 C757.42,304.39 751.65,318.38 738.01,332.01 C727.24,342.78 718.10,347.59 704.53,349.63 ZM 423.79 349.92 C410.97,351.35 406.69,351.20 399.50,349.11 C382.85,344.27 367.08,330.83 359.10,314.69 C342.96,282.02 355.36,245.34 388.50,227.69 C403.49,219.71 428.52,220.14 445.95,228.66 C454.46,232.83 467.94,245.36 472.11,253.00 C480.51,268.36 482.92,283.75 479.48,300.08 C476.88,312.48 471.25,322.52 461.36,332.44 C450.23,343.61 440.69,348.04 423.79,349.92 ZM 376.38 552.97 C384.14,553.37 471.34,553.76 570.14,553.85 L 749.78 554.00 L 757.10 548.75 C763.74,543.98 771.00,536.24 771.00,533.92 C771.00,532.72 341.32,532.68 340.57,533.88 C339.93,534.92 342.73,538.82 348.36,544.73 C353.88,550.54 359.15,552.09 376.38,552.97 ZM 190.20 336.88 C183.37,338.33 167.91,338.18 161.50,336.60 C142.74,331.99 126.76,316.91 121.05,298.43 C118.49,290.15 118.28,275.84 120.59,267.93 C125.35,251.63 137.67,238.55 154.50,231.94 C159.62,229.93 162.26,229.58 172.50,229.58 C182.74,229.58 185.38,229.93 190.50,231.94 C203.41,237.01 213.58,245.82 219.37,256.95 C223.46,264.81 225.00,271.54 225.00,281.62 L 225.00 289.13 L 181.68 288.82 L 138.36 288.50 L 139.01 292.00 C142.24,309.22 164.71,323.74 182.57,320.16 C190.58,318.55 198.85,314.24 204.19,308.91 C207.91,305.18 209.02,304.53 209.39,305.84 C209.65,306.75 210.84,311.51 212.04,316.42 L 214.21 325.33 L 211.86 327.18 C207.92,330.27 195.82,335.69 190.20,336.88 ZM 682.69 331.50 C697.78,335.65 716.16,330.17 727.02,318.29 C733.08,311.66 738.84,300.25 739.66,293.26 C741.23,279.88 735.21,262.40 725.67,252.63 C712.09,238.72 689.90,235.25 672.50,244.32 C665.19,248.13 654.16,258.86 651.20,265.03 C645.28,277.40 645.70,297.40 652.11,308.67 C657.84,318.74 670.41,328.12 682.69,331.50 ZM 404.40 331.11 C420.93,335.84 439.95,329.95 451.87,316.41 C465.10,301.38 466.49,279.34 455.38,260.39 C451.53,253.82 443.07,246.66 435.31,243.40 C429.06,240.78 427.47,240.54 415.95,240.52 C403.43,240.50 403.37,240.51 395.79,244.26 C390.43,246.91 386.66,249.68 383.04,253.64 C373.47,264.12 370.68,272.61 371.17,289.81 L 371.50 301.54 L 376.30 309.23 C383.45,320.70 392.42,327.68 404.40,331.11 ZM 110.50 318.50 L 110.50 336.50 L 63.82 336.76 C34.65,336.92 16.91,336.66 16.53,336.06 C16.21,335.53 31.25,304.19 49.97,266.42 C68.69,228.64 84.00,197.58 84.00,197.38 C84.00,197.19 70.39,196.91 53.75,196.76 L 23.50 196.50 L 22.92 179.00 L 113.95 179.00 L 113.09 181.25 C112.61,182.49 104.23,199.48 94.47,219.00 C75.50,256.94 46.00,316.94 46.00,317.59 C46.00,317.80 60.51,318.09 78.25,318.24 ZM 257.83 335.71 C257.12,336.56 254.10,337.00 248.91,337.00 C242.18,337.00 240.92,336.73 240.04,335.07 C239.36,333.80 239.00,315.35 239.00,282.07 L 239.00 231.00 L 257.00 231.00 L 257.00 247.22 L 261.60 242.10 C264.80,238.55 268.55,235.83 273.85,233.25 C281.20,229.66 281.92,229.51 292.00,229.51 C301.67,229.50 303.01,229.75 309.00,232.59 C317.18,236.47 321.11,239.79 325.90,246.88 C333.35,257.90 333.50,258.95 333.50,300.00 L 333.50 336.50 L 315.50 336.50 L 315.00 302.50 C314.52,269.69 314.42,268.32 312.20,263.50 C305.99,249.99 292.89,244.12 278.58,248.43 C271.76,250.48 267.44,253.73 263.21,260.00 L 259.50 265.50 L 259.20 299.96 C259.00,322.59 258.53,334.86 257.83,335.71 ZM 338.00 362.00 L 338.00 374.00 L 8.00 374.00 L 8.00 362.00 ZM 531.34 606.45 C532.21,608.72 577.76,608.79 578.63,606.53 C579.22,604.99 577.37,583.00 576.14,577.00 L 575.43 573.50 L 568.96 573.17 C565.41,572.99 556.14,573.14 548.37,573.52 L 534.24 574.20 L 533.15 581.35 C531.59,591.58 530.65,604.64 531.34,606.45 ZM 138.00 273.03 C138.00,274.45 138.75,274.56 143.75,273.82 C146.91,273.36 162.32,273.05 178.00,273.14 C180.39,273.15 182.59,273.17 184.61,273.19 C199.99,273.30 205.22,273.34 206.01,271.49 C206.42,270.54 205.64,269.08 204.47,266.87 C204.17,266.31 203.85,265.70 203.51,265.03 C200.30,258.72 194.01,252.64 187.24,249.32 C182.24,246.86 180.35,246.50 172.50,246.50 C164.58,246.50 162.79,246.85 157.54,249.43 C154.27,251.03 149.69,254.30 147.38,256.67 C143.14,261.03 138.00,270.00 138.00,273.03 ZM 553.68 323.93 C545.36,327.09 535.30,323.09 533.51,315.92 C532.13,310.37 542.47,303.93 550.37,305.41 C555.29,306.33 561.00,311.86 561.00,315.69 C561.00,318.99 558.10,322.26 553.68,323.93 ZM 556.68 192.47 C554.17,194.12 542.61,195.42 540.00,194.35 C536.32,192.85 535.00,190.65 535.00,186.02 C535.00,182.29 535.52,180.86 537.58,178.92 C539.79,176.85 541.14,176.50 547.01,176.50 C552.40,176.50 554.45,176.95 556.68,178.60 C562.12,182.66 562.13,188.90 556.68,192.47 ZM 554.28 231.64 C543.77,236.09 531.23,228.25 535.54,219.93 C538.47,214.26 545.55,212.60 554.23,215.56 C563.58,218.75 563.61,227.69 554.28,231.64 ZM 553.03 286.35 C549.63,288.62 545.25,288.42 539.96,285.75 C534.70,283.10 533.05,279.70 534.88,275.28 C536.67,270.96 540.77,269.00 548.04,269.00 C553.88,269.00 554.47,269.22 557.63,272.57 C559.48,274.54 561.00,276.93 561.00,277.88 C561.00,279.65 557.53,283.34 553.03,286.35 Z" fill="rgb(99,99,99)"/>
<path d="M 0.00 400.00 L 0.00 0.00 L 400.00 0.00 L 800.00 0.00 L 800.00 400.00 L 800.00 800.00 L 400.00 800.00 L 0.00 800.00 L 0.00 400.00 ZM 625.50 622.47 C632.75,618.90 633.96,608.67 627.74,603.44 C624.57,600.76 624.51,600.76 611.35,601.20 L 598.14 601.65 L 597.04 595.30 C596.43,591.81 595.66,585.42 595.33,581.09 L 594.72 573.23 L 670.11 572.72 C751.91,572.17 753.04,572.10 762.59,566.50 C772.77,560.53 783.16,549.43 788.30,539.02 L 791.50 532.55 L 791.80 470.10 L 792.10 407.66 L 788.92 401.58 C781.43,387.28 775.01,379.66 764.86,373.03 C753.58,365.66 752.38,365.50 708.00,365.52 C671.51,365.53 667.58,365.70 656.46,367.75 C618.54,374.75 597.33,391.15 589.54,419.50 C587.96,425.25 586.65,453.26 585.76,500.50 L 585.50 514.50 L 571.30 514.78 L 557.10 515.05 L 556.56 511.78 C556.26,509.97 555.55,502.88 554.98,496.00 C549.63,431.11 536.58,401.28 505.64,383.19 C479.94,368.16 461.34,365.03 397.73,365.01 C365.72,365.00 364.81,365.06 358.23,367.39 C341.75,373.23 331.83,381.98 323.61,397.90 L 319.00 406.82 L 319.01 464.66 C319.01,499.38 319.43,525.10 320.04,529.00 C321.51,538.25 325.22,545.15 334.01,554.95 C349.54,572.27 348.46,572.10 443.75,572.73 C483.49,573.00 516.00,573.34 516.00,573.50 C516.00,578.08 513.51,595.23 512.50,597.66 L 511.10 601.00 L 498.70 601.00 L 486.31 601.00 L 482.65 604.55 C479.64,607.47 479.00,608.80 479.00,612.11 C479.00,624.41 482.23,624.87 566.00,624.62 C619.05,624.46 621.68,624.36 625.50,622.47 ZM 338.00 368.00 L 338.00 362.00 L 173.00 362.00 L 8.00 362.00 L 8.00 368.00 L 8.00 374.00 L 173.00 374.00 L 338.00 374.00 L 338.00 368.00 ZM 423.79 349.92 C440.69,348.04 450.23,343.61 461.36,332.44 C471.25,322.52 476.88,312.48 479.48,300.08 C482.92,283.75 480.51,268.36 472.11,253.00 C467.94,245.36 454.46,232.83 445.95,228.66 C428.52,220.14 403.49,219.71 388.50,227.69 C355.36,245.34 342.96,282.02 359.10,314.69 C367.08,330.83 382.85,344.27 399.50,349.11 C406.69,351.20 410.97,351.35 423.79,349.92 ZM 704.53 349.63 C718.10,347.59 727.24,342.78 738.01,332.01 C751.65,318.38 757.42,304.39 757.38,285.00 C757.34,264.67 749.79,248.52 734.65,236.40 C725.48,229.06 717.38,225.42 705.79,223.39 C694.86,221.49 678.88,221.97 672.14,224.41 C652.32,231.59 633.08,253.43 630.04,272.21 C626.21,295.76 631.86,315.54 646.90,331.32 C656.71,341.61 667.34,347.19 681.50,349.50 C692.05,351.22 693.89,351.23 704.53,349.63 ZM 190.20 336.88 C195.82,335.69 207.92,330.27 211.86,327.18 L 214.21 325.33 L 212.04 316.42 C210.84,311.51 209.65,306.75 209.39,305.84 C209.02,304.53 207.91,305.18 204.19,308.91 C198.85,314.24 190.58,318.55 182.57,320.16 C164.71,323.74 142.24,309.22 139.01,292.00 L 138.36 288.50 L 181.68 288.82 L 225.00 289.13 L 225.00 281.62 C225.00,271.54 223.46,264.81 219.37,256.95 C213.58,245.82 203.41,237.01 190.50,231.94 C185.38,229.93 182.74,229.58 172.50,229.58 C162.26,229.58 159.62,229.93 154.50,231.94 C137.67,238.55 125.35,251.63 120.59,267.93 C118.28,275.84 118.49,290.15 121.05,298.43 C126.76,316.91 142.74,331.99 161.50,336.60 C167.91,338.18 183.37,338.33 190.20,336.88 ZM 110.50 327.50 L 110.50 318.50 L 78.25 318.24 C60.51,318.09 46.00,317.80 46.00,317.59 C46.00,316.94 75.50,256.94 94.47,219.00 C104.23,199.48 112.61,182.49 113.09,181.25 L 113.95 179.00 L 68.44 179.00 L 22.92 179.00 L 23.21 187.75 L 23.50 196.50 L 53.75 196.76 C70.39,196.91 84.00,197.19 84.00,197.38 C84.00,197.58 68.69,228.64 49.97,266.42 C31.25,304.19 16.21,335.53 16.53,336.06 C16.91,336.66 34.65,336.92 63.82,336.76 L 110.50 336.50 L 110.50 327.50 ZM 257.83 335.71 C258.53,334.86 259.00,322.59 259.20,299.96 L 259.50 265.50 L 263.21 260.00 C267.44,253.73 271.76,250.48 278.58,248.43 C292.89,244.12 305.99,249.99 312.20,263.50 C314.42,268.32 314.52,269.69 315.00,302.50 L 315.50 336.50 L 324.50 336.50 L 333.50 336.50 L 333.50 300.00 C333.50,258.95 333.35,257.90 325.90,246.88 C321.11,239.79 317.18,236.47 309.00,232.59 C303.01,229.75 301.67,229.50 292.00,229.51 C281.92,229.51 281.20,229.66 273.85,233.25 C268.55,235.83 264.80,238.55 261.60,242.10 L 257.00 247.22 L 257.00 239.11 L 257.00 231.00 L 248.00 231.00 L 239.00 231.00 L 239.00 282.07 C239.00,315.35 239.36,333.80 240.04,335.07 C240.92,336.73 242.18,337.00 248.91,337.00 C254.10,337.00 257.12,336.56 257.83,335.71 ZM 553.68 323.93 C558.10,322.26 561.00,318.99 561.00,315.69 C561.00,311.86 555.29,306.33 550.37,305.41 C542.47,303.93 532.13,310.37 533.51,315.92 C535.30,323.09 545.36,327.09 553.68,323.93 ZM 553.03 286.35 C557.53,283.34 561.00,279.65 561.00,277.88 C561.00,276.93 559.48,274.54 557.63,272.57 C554.47,269.22 553.88,269.00 548.04,269.00 C540.77,269.00 536.67,270.96 534.88,275.28 C533.05,279.70 534.70,283.10 539.96,285.75 C545.25,288.42 549.63,288.62 553.03,286.35 ZM 554.28 231.64 C563.61,227.69 563.58,218.75 554.23,215.56 C545.55,212.60 538.47,214.26 535.54,219.93 C531.23,228.25 543.77,236.09 554.28,231.64 ZM 556.68 192.47 C562.13,188.90 562.12,182.66 556.68,178.60 C554.45,176.95 552.40,176.50 547.01,176.50 C541.14,176.50 539.79,176.85 537.58,178.92 C535.52,180.86 535.00,182.29 535.00,186.02 C535.00,190.65 536.32,192.85 540.00,194.35 C542.61,195.42 554.17,194.12 556.68,192.47 ZM 531.34 606.45 C530.65,604.64 531.59,591.58 533.15,581.35 L 534.24 574.20 L 548.37 573.52 C556.14,573.14 565.41,572.99 568.96,573.17 L 575.43 573.50 L 576.14 577.00 C577.37,583.00 579.22,604.99 578.63,606.53 C577.76,608.79 532.21,608.72 531.34,606.45 ZM 376.38 552.97 C359.15,552.09 353.88,550.54 348.36,544.73 C342.73,538.82 339.93,534.92 340.57,533.88 C341.32,532.68 771.00,532.72 771.00,533.92 C771.00,536.24 763.74,543.98 757.10,548.75 L 749.78 554.00 L 570.14 553.85 C471.34,553.76 384.14,553.37 376.38,552.97 ZM 366.67 514.96 C349.35,514.51 338.44,513.84 337.78,513.18 C336.17,511.57 335.13,491.46 335.13,462.00 C335.13,423.20 335.78,416.10 340.16,406.93 C344.37,398.15 350.19,391.27 356.75,387.34 L 361.50 384.50 L 409.00 384.51 L 456.50 384.52 L 467.50 387.36 C482.74,391.29 495.58,396.41 500.70,400.61 C519.20,415.77 527.46,430.86 532.37,458.50 C534.41,470.00 537.00,495.03 537.28,505.97 L 537.50 514.44 L 534.50 515.10 C530.52,515.98 402.06,515.87 366.67,514.96 ZM 613.87 515.26 L 606.23 514.92 L 605.72 470.71 L 605.22 426.50 L 609.28 418.00 C616.13,403.63 627.11,394.60 645.25,388.40 C655.79,384.80 666.91,384.05 710.55,384.03 L 749.60 384.00 L 755.62 388.38 C762.82,393.62 768.09,399.56 771.11,405.86 C773.11,410.02 773.42,412.73 774.10,432.00 C775.38,468.52 775.19,511.60 773.75,512.79 C770.96,515.09 651.68,516.94 613.87,515.26 ZM 404.40 331.11 C392.42,327.68 383.45,320.70 376.30,309.23 L 371.50 301.54 L 371.17 289.81 C370.68,272.61 373.47,264.12 383.04,253.64 C386.66,249.68 390.43,246.91 395.79,244.26 C403.37,240.51 403.43,240.50 415.95,240.52 C427.47,240.54 429.06,240.78 435.31,243.40 C443.07,246.66 451.53,253.82 455.38,260.39 C466.49,279.34 465.10,301.38 451.87,316.41 C439.95,329.95 420.93,335.84 404.40,331.11 ZM 682.69 331.50 C670.41,328.12 657.84,318.74 652.11,308.67 C645.70,297.40 645.28,277.40 651.20,265.03 C654.16,258.86 665.19,248.13 672.50,244.32 C689.90,235.25 712.09,238.72 725.67,252.63 C735.21,262.40 741.23,279.88 739.66,293.26 C738.84,300.25 733.08,311.66 727.02,318.29 C716.16,330.17 697.78,335.65 682.69,331.50 ZM 138.00 273.03 C138.00,270.00 143.14,261.03 147.38,256.67 C149.69,254.30 154.27,251.03 157.54,249.43 C162.79,246.85 164.58,246.50 172.50,246.50 C180.35,246.50 182.24,246.86 187.24,249.32 C194.01,252.64 200.30,258.72 203.51,265.03 C208.08,274.03 210.28,273.33 178.00,273.14 C162.32,273.05 146.91,273.36 143.75,273.82 C138.75,274.56 138.00,274.45 138.00,273.03 Z" fill="rgb(254,254,254)"/>
</g>
</svg>